<svg xmlns="http://www.w3.org/2000/svg" xmlns:xlink="http://www.w3.org/1999/xlink" width="300" zoomAndPan="magnify" viewBox="0 0 224.87999 44.999999" height="60" preserveAspectRatio="xMidYMid meet" version="1.0"><defs><g/><clipPath id="ff08ab116f"><path d="M 0 0.0117188 L 34 0.0117188 L 34 43 L 0 43 Z M 0 0.0117188 " clip-rule="nonzero"/></clipPath><clipPath id="2e4f3c100b"><path d="M 33 0.0117188 L 64 0.0117188 L 64 43 L 33 43 Z M 33 0.0117188 " clip-rule="nonzero"/></clipPath><clipPath id="28aaa1b02a"><path d="M 66 0.0117188 L 103 0.0117188 L 103 43 L 66 43 Z M 66 0.0117188 " clip-rule="nonzero"/></clipPath><clipPath id="a9c6f896f7"><path d="M 100 0.0117188 L 145 0.0117188 L 145 43 L 100 43 Z M 100 0.0117188 " clip-rule="nonzero"/></clipPath><clipPath id="7822c7b5c9"><path d="M 155 0.0117188 L 185 0.0117188 L 185 43 L 155 43 Z M 155 0.0117188 " clip-rule="nonzero"/></clipPath><clipPath id="49adba32c7"><path d="M 187 0.0117188 L 224.761719 0.0117188 L 224.761719 43 L 187 43 Z M 187 0.0117188 " clip-rule="nonzero"/></clipPath></defs><g clip-path="url(#ff08ab116f)"><g fill="#222222" fill-opacity="1"><g transform="translate(0.000000000000021305, 42.364397)"><g><path d="M 25.03125 0 C 22.5 0 20.269531 -0.5625 18.34375 -1.6875 C 16.425781 -2.820312 14.921875 -4.335938 13.828125 -6.234375 C 12.734375 -8.140625 12.1875 -10.265625 12.1875 -12.609375 L 12.1875 -33.296875 L 0.890625 -33.296875 L 0.890625 -41.625 L 33.421875 -41.625 L 33.421875 -33.296875 L 22.1875 -33.296875 L 22.1875 -11.71875 C 22.1875 -10.800781 22.5 -10.003906 23.125 -9.328125 C 23.757812 -8.660156 24.554688 -8.328125 25.515625 -8.328125 L 28.78125 -8.328125 L 28.78125 0 Z M 25.03125 0 "/></g></g></g></g><g clip-path="url(#2e4f3c100b)"><g fill="#222222" fill-opacity="1"><g transform="translate(31.337501, 42.364397)"><g><path d="M 14.75 0 C 12.40625 0 10.28125 -0.539062 8.375 -1.625 C 6.476562 -2.71875 4.960938 -4.1875 3.828125 -6.03125 C 2.703125 -7.875 2.140625 -9.96875 2.140625 -12.3125 C 2.140625 -14.050781 2.523438 -15.679688 3.296875 -17.203125 C 4.066406 -18.734375 5.109375 -20.054688 6.421875 -21.171875 C 5.148438 -22.242188 4.144531 -23.507812 3.40625 -24.96875 C 2.675781 -26.4375 2.3125 -27.984375 2.3125 -29.609375 C 2.3125 -31.910156 2.867188 -33.960938 3.984375 -35.765625 C 5.097656 -37.566406 6.582031 -38.992188 8.4375 -40.046875 C 10.300781 -41.097656 12.363281 -41.625 14.625 -41.625 L 32.171875 -41.625 L 32.171875 -33.296875 L 16.171875 -33.296875 C 15.421875 -33.296875 14.726562 -33.117188 14.09375 -32.765625 C 13.457031 -32.410156 12.953125 -31.9375 12.578125 -31.34375 C 12.203125 -30.75 12.015625 -30.054688 12.015625 -29.265625 C 12.015625 -28.503906 12.203125 -27.816406 12.578125 -27.203125 C 12.953125 -26.585938 13.457031 -26.113281 14.09375 -25.78125 C 14.726562 -25.445312 15.421875 -25.28125 16.171875 -25.28125 L 30.15625 -25.28125 L 30.15625 -16.953125 L 16.46875 -16.953125 C 15.632812 -16.953125 14.878906 -16.753906 14.203125 -16.359375 C 13.535156 -15.960938 13.003906 -15.445312 12.609375 -14.8125 C 12.210938 -14.175781 12.015625 -13.441406 12.015625 -12.609375 C 12.015625 -11.816406 12.210938 -11.09375 12.609375 -10.4375 C 13.003906 -9.78125 13.535156 -9.273438 14.203125 -8.921875 C 14.878906 -8.566406 15.632812 -8.390625 16.46875 -8.390625 L 32.171875 -8.390625 L 32.171875 0 Z M 14.75 0 "/></g></g></g></g><g clip-path="url(#28aaa1b02a)"><g fill="#222222" fill-opacity="1"><g transform="translate(62.853388, 42.364397)"><g><path d="M 3.625 0 L 3.625 -41.625 L 13.625 -41.625 L 13.625 -24.796875 L 20.515625 -24.796875 C 21.660156 -24.796875 22.71875 -25.03125 23.6875 -25.5 C 24.664062 -25.976562 25.429688 -26.691406 25.984375 -27.640625 C 26.546875 -28.597656 26.828125 -29.710938 26.828125 -30.984375 L 26.828125 -41.625 L 36.8125 -41.625 L 36.8125 -30.921875 C 36.8125 -28.265625 36.175781 -25.882812 34.90625 -23.78125 C 33.632812 -21.6875 31.96875 -20.003906 29.90625 -18.734375 L 34.4375 -9.21875 C 34.550781 -8.894531 34.753906 -8.65625 35.046875 -8.5 C 35.347656 -8.34375 35.675781 -8.265625 36.03125 -8.265625 L 39.78125 -8.265625 L 39.78125 0 L 34.015625 0 C 31.835938 0 30.070312 -0.414062 28.71875 -1.25 C 27.375 -2.082031 26.34375 -3.234375 25.625 -4.703125 L 19.984375 -16.46875 C 19.660156 -16.46875 19.359375 -16.46875 19.078125 -16.46875 C 18.804688 -16.46875 18.515625 -16.46875 18.203125 -16.46875 L 13.625 -16.46875 L 13.625 0 Z M 3.625 0 "/></g></g></g></g><g clip-path="url(#a9c6f896f7)"><g fill="#222222" fill-opacity="1"><g transform="translate(100.137315, 42.364397)"><g><path d="M 0 0 L 13.5 -36.8125 C 14.175781 -38.632812 15.285156 -40.007812 16.828125 -40.9375 C 18.378906 -41.875 20.125 -42.34375 22.0625 -42.34375 C 24.007812 -42.34375 25.753906 -41.894531 27.296875 -41 C 28.835938 -40.113281 29.945312 -38.738281 30.625 -36.875 L 44.1875 0 L 33.421875 0 L 30.8125 -8.03125 L 13.140625 -8.03125 L 10.40625 0 Z M 15.703125 -16.296875 L 28.25 -16.296875 L 22.953125 -32.890625 C 22.878906 -33.128906 22.769531 -33.296875 22.625 -33.390625 C 22.488281 -33.492188 22.320312 -33.546875 22.125 -33.546875 C 21.925781 -33.546875 21.753906 -33.484375 21.609375 -33.359375 C 21.472656 -33.242188 21.382812 -33.085938 21.34375 -32.890625 Z M 15.703125 -16.296875 "/></g></g></g></g><g fill="#b6232d" fill-opacity="1"><g transform="translate(141.346438, 42.364397)"><g><path d="M 7.96875 0.71875 C 6.382812 0.71875 5.023438 0.15625 3.890625 -0.96875 C 2.765625 -2.101562 2.203125 -3.445312 2.203125 -5 C 2.203125 -6.582031 2.765625 -7.9375 3.890625 -9.0625 C 5.023438 -10.195312 6.382812 -10.765625 7.96875 -10.765625 C 9.507812 -10.765625 10.84375 -10.195312 11.96875 -9.0625 C 13.101562 -7.9375 13.671875 -6.582031 13.671875 -5 C 13.671875 -3.96875 13.410156 -3.015625 12.890625 -2.140625 C 12.378906 -1.265625 11.695312 -0.566406 10.84375 -0.046875 C 10 0.460938 9.039062 0.71875 7.96875 0.71875 Z M 7.96875 0.71875 "/></g></g></g><g clip-path="url(#7822c7b5c9)"><g fill="#b6232d" fill-opacity="1"><g transform="translate(154.249997, 42.364397)"><g><path d="M 23.84375 0 C 20.4375 0 17.363281 -0.523438 14.625 -1.578125 C 11.894531 -2.628906 9.578125 -4.101562 7.671875 -6 C 5.765625 -7.90625 4.296875 -10.113281 3.265625 -12.625 C 2.234375 -15.144531 1.71875 -17.875 1.71875 -20.8125 C 1.71875 -23.75 2.234375 -26.472656 3.265625 -28.984375 C 4.296875 -31.503906 5.769531 -33.710938 7.6875 -35.609375 C 9.613281 -37.515625 11.9375 -38.992188 14.65625 -40.046875 C 17.375 -41.097656 20.4375 -41.625 23.84375 -41.625 L 30.265625 -41.625 L 30.265625 -33.296875 L 24.078125 -33.296875 C 22.222656 -33.296875 20.53125 -32.976562 19 -32.34375 C 17.46875 -31.71875 16.15625 -30.835938 15.0625 -29.703125 C 13.976562 -28.578125 13.148438 -27.257812 12.578125 -25.75 C 12.003906 -24.238281 11.71875 -22.59375 11.71875 -20.8125 C 11.71875 -19.03125 12.003906 -17.382812 12.578125 -15.875 C 13.148438 -14.375 13.976562 -13.054688 15.0625 -11.921875 C 16.15625 -10.796875 17.46875 -9.914062 19 -9.28125 C 20.53125 -8.644531 22.222656 -8.328125 24.078125 -8.328125 L 30.265625 -8.328125 L 30.265625 0 Z M 23.84375 0 "/></g></g></g></g><g clip-path="url(#49adba32c7)"><g fill="#b6232d" fill-opacity="1"><g transform="translate(183.565707, 42.364397)"><g><path d="M 3.625 0 L 3.625 -41.625 L 18.90625 -41.625 C 23.3125 -41.625 27.128906 -40.734375 30.359375 -38.953125 C 33.585938 -37.171875 36.101562 -34.710938 37.90625 -31.578125 C 39.707031 -28.441406 40.609375 -24.851562 40.609375 -20.8125 C 40.609375 -16.769531 39.707031 -13.179688 37.90625 -10.046875 C 36.101562 -6.921875 33.585938 -4.460938 30.359375 -2.671875 C 27.128906 -0.890625 23.3125 0 18.90625 0 Z M 13.625 -8.328125 L 18.671875 -8.328125 C 20.972656 -8.328125 23.023438 -8.832031 24.828125 -9.84375 C 26.628906 -10.851562 28.046875 -12.289062 29.078125 -14.15625 C 30.109375 -16.019531 30.625 -18.238281 30.625 -20.8125 C 30.625 -23.382812 30.109375 -25.601562 29.078125 -27.46875 C 28.046875 -29.332031 26.628906 -30.769531 24.828125 -31.78125 C 23.023438 -32.789062 20.972656 -33.296875 18.671875 -33.296875 L 13.625 -33.296875 Z M 13.625 -8.328125 "/></g></g></g></g></svg>